<?xml version="1.0" encoding="utf-8"?>
<!-- Generator: Adobe Illustrator 19.2.1, SVG Export Plug-In . SVG Version: 6.00 Build 0)  -->
<svg version="1.1" xmlns="http://www.w3.org/2000/svg" xmlns:xlink="http://www.w3.org/1999/xlink" x="0px" y="0px"
	 viewBox="0 0 250 250" style="enable-background:new 0 0 250 250;" xml:space="preserve">
<style type="text/css">
	.st0{display:none;}
	.st1{display:inline;fill:#CCCCCC;stroke:#000000;stroke-width:18;stroke-miterlimit:10;}
	.st2{fill:#4FBA6F;}
	.st3{fill:#48A0DC;}
	.st4{fill:#556080;}
</style>
<g id="Capa_1" class="st0">
	<path class="st1" d="M235.6,123c0,0-59.8,104.5-117.5,104.5S13.6,180.7,13.6,123S60.4,18.5,118.1,18.5S235.6,123,235.6,123z"/>
</g>
<g id="Capa_2">
	<g>
		<path class="st2" d="M192.1,126.6c0,13.7-4.2,26.5-11.4,37l38.2,38.2c16.7-20.5,26.7-46.7,26.7-75.2c0-28.5-10-54.7-26.7-75.2
			l-38.2,38.2C187.9,100.1,192.1,112.8,192.1,126.6L192.1,126.6z M192.1,126.6"/>
		<path class="st3" d="M163.2,181.1c-10.6,7.2-23.3,11.4-37,11.4c-32.2,0-58.9-23.1-64.7-53.5H7.4c6.2,60.1,57,107.1,118.8,107.1
			c28.5,0,54.7-10,75.2-26.7L163.2,181.1z M163.2,181.1"/>
		<path class="st4" d="M61.5,114.2c5.8-30.5,32.5-53.6,64.7-53.6c13.7,0,26.5,4.2,37,11.4l38.2-38.2c-20.5-16.7-46.7-26.7-75.2-26.7
			C64.4,7.2,13.6,54.1,7.4,114.2H61.5z M61.5,114.2"/>
	</g>
</g>
</svg>
