<?xml version="1.0" encoding="utf-8"?>
<!-- Generator: Adobe Illustrator 19.2.1, SVG Export Plug-In . SVG Version: 6.00 Build 0)  -->
<svg version="1.1" id="Capa_1" xmlns="http://www.w3.org/2000/svg" xmlns:xlink="http://www.w3.org/1999/xlink" x="0px" y="0px"
	 viewBox="0 0 197.1 128.3" style="enable-background:new 0 0 197.1 128.3;" xml:space="preserve">
<style type="text/css">
	.st0{fill:#0073A5;}
	.st1{fill:#BEBEBE;}
	.st2{fill:none;stroke:#0073A5;stroke-width:1.4604;}
	.st3{font-family:'Myriad-Bold';}
	.st4{font-size:8.5635px;}
</style>
<rect x="6.9" y="80.6" class="st0" width="10.7" height="31"/>
<path class="st0" d="M23.8,80.6h9.7v5.7h0.1c2.1-4.5,6.4-6.4,11.3-6.4c4.4,0,8,1.9,9.7,5.9c2.5-4.2,6.6-5.9,11-5.9
	c8.9,0,10.9,5.1,10.9,13.4v18.2H65.8V94.9c0-3.5-1.2-6.1-4.3-6.1c-3.8,0-6.1,3-6.1,9.7v13.1H44.8V94.9c0-3.5-1.2-6.1-4.3-6.1
	c-3.8,0-6.1,3-6.1,9.7v13.1H23.8V80.6z"/>
<path class="st0" d="M107.4,89.5c-2-1.2-3.9-1.7-6.5-1.7c-4.6,0-8.2,3.2-8.2,8.5c0,4.9,4.2,8.1,8.8,8.1c2.4,0,4.9-0.5,6.7-1.5l0.2,8
	c-2.7,0.9-5.9,1.4-8.7,1.4c-10.2,0-18-5.9-18-16.2c0-10.3,7.8-16.2,18-16.2c3.2,0,6.1,0.5,8.5,1.7L107.4,89.5z"/>
<path class="st0" d="M172.2,89.5c-2-1.2-3.9-1.7-6.5-1.7c-4.6,0-8.2,3.2-8.2,8.5c0,4.9,4.2,8.1,8.8,8.1c2.4,0,4.9-0.5,6.7-1.5l0.2,8
	c-2.7,0.9-5.9,1.4-8.7,1.4c-10.2,0-18-5.9-18-16.2c0-10.3,7.8-16.2,18-16.2c3.2,0,6.1,0.5,8.5,1.7L172.2,89.5z"/>
<path class="st0" d="M113.3,115.9c1.4,0.5,2.7,0.7,4.2,0.7c2.6,0,4.6-1.5,5.4-4.3l-12.5-31.7H122l6.7,20.2h0.1l6.4-20.2h10.7
	l-11.3,28.8c-3,7.8-5.3,15.3-15.1,15.3c-2.3,0-4.5-0.2-6.7-0.7L113.3,115.9z"/>
<path class="st1" d="M132.6,25.9c2.2-2.7,5.5-4.5,9.2-4.5c3.8,0,7.1,1.8,9.3,4.5l16.6-9.6c-5.5-8.4-15-14-25.8-14
	c-10.8,0-20.3,5.6-25.8,14L132.6,25.9z"/>
<path class="st1" d="M140.1,44.8C134.4,44,130,39.1,130,33.2c0-1.5,0.3-3,0.8-4.4l-16.6-9.6c-2.1,4.2-3.3,8.9-3.3,13.9
	c0,16.5,12.9,29.9,29.2,30.8V44.8z"/>
<path class="st0" d="M169.3,19.2l-16.6,9.6c0.5,1.4,0.8,2.8,0.8,4.4c0,5.9-4.4,10.8-10.1,11.6v19.1c16.2-0.9,29.2-14.3,29.2-30.8
	C172.7,28.1,171.5,23.4,169.3,19.2z"/>
<path class="st2" d="M181.4,84.1c0-3.2,2.6-5.8,5.8-5.8s5.8,2.6,5.8,5.8c0,3.2-2.6,5.8-5.8,5.8S181.4,87.3,181.4,84.1z"/>
<g>
	<text transform="matrix(1.1 0 0 1 184.5684 87.0337)" class="st0 st3 st4">R</text>
</g>
</svg>
