<?xml version="1.0" encoding="utf-8"?>
<!-- Generator: Adobe Illustrator 19.2.1, SVG Export Plug-In . SVG Version: 6.00 Build 0)  -->
<svg version="1.1" id="Capa_1" xmlns="http://www.w3.org/2000/svg" xmlns:xlink="http://www.w3.org/1999/xlink" x="0px" y="0px"
	 viewBox="0 0 350 98" style="enable-background:new 0 0 350 98;" xml:space="preserve">
<style type="text/css">
	.st0{fill:#0073A5;}
	.st1{fill:#BEBEBE;}
</style>
<rect x="108.3" y="31.1" class="st0" width="14.2" height="40.9"/>
<g>
	<g>
		<path class="st0" d="M130.6,31.1h12.9v7.5h0.2c2.8-5.9,8.5-8.5,14.9-8.5c5.8,0,10.6,2.5,12.8,7.8c3.3-5.5,8.7-7.8,14.6-7.8
			c11.8,0,14.5,6.7,14.5,17.7V72h-14.2V50c0-4.6-1.6-8.1-5.7-8.1c-5,0-8,4-8,12.8V72h-14.2V50c0-4.6-1.7-8.1-5.7-8.1
			c-5,0-8,4-8,12.8V72h-14.2V31.1z"/>
	</g>
	<g>
		<path class="st0" d="M241.4,42.8c-2.6-1.6-5.2-2.3-8.6-2.3c-6.1,0-10.9,4.2-10.9,11.3c0,6.5,5.5,10.7,11.6,10.7
			c3.2,0,6.5-0.7,8.8-2l0.3,10.5c-3.5,1.2-7.8,1.8-11.5,1.8c-13.5,0-23.8-7.8-23.8-21.3c0-13.6,10.3-21.4,23.8-21.4
			c4.2,0,8,0.7,11.2,2.3L241.4,42.8z"/>
	</g>
	<g>
		<path class="st0" d="M327.2,42.8c-2.6-1.6-5.2-2.3-8.6-2.3c-6.1,0-10.9,4.2-10.9,11.3c0,6.5,5.5,10.7,11.7,10.7
			c3.2,0,6.4-0.7,8.8-2l0.3,10.5c-3.5,1.2-7.8,1.8-11.6,1.8c-13.5,0-23.8-7.8-23.8-21.3c0-13.6,10.3-21.4,23.8-21.4
			c4.2,0,8,0.7,11.3,2.3L327.2,42.8z"/>
	</g>
	<g>
		<path class="st0" d="M249.3,77.7c1.9,0.6,3.6,0.9,5.6,0.9c3.5,0,6.1-2,7.2-5.7l-16.6-41.8h15.3l8.8,26.7h0.1l8.4-26.7h14.2l-15,38
			c-4,10.3-7.1,20.3-20.1,20.3c-3,0-5.9-0.3-8.8-0.9L249.3,77.7z"/>
	</g>
	<g>
		<path class="st1" d="M36.3,38.1c2.8-3.6,7.2-5.9,12.1-5.9c4.9,0,9.3,2.3,12.1,5.9l21.7-12.5c-7.2-11-19.7-18.3-33.9-18.3
			c-14.2,0-26.6,7.3-33.9,18.3L36.3,38.1z"/>
	</g>
	<g>
		<path class="st1" d="M46.2,62.9C38.8,61.8,33,55.4,33,47.6c0-2,0.4-3.9,1.1-5.7L12.4,29.5C9.6,34.9,8,41.1,8,47.6
			c0,21.5,16.9,39,38.2,40.2V62.9z"/>
	</g>
	<g>
		<path class="st0" d="M84.5,29.5L62.8,42c0.7,1.8,1.1,3.7,1.1,5.7c0,7.7-5.8,14.1-13.2,15.2v25C72,86.7,88.9,69.2,88.9,47.6
			C88.9,41.1,87.3,34.9,84.5,29.5"/>
	</g>
	<g>
		<path class="st0" d="M336.3,33.8c-1,1-1.5,2.2-1.5,3.6s0.5,2.6,1.5,3.6c1,1,2.2,1.5,3.6,1.5c1.4,0,2.6-0.5,3.6-1.5
			c1-1,1.5-2.2,1.5-3.6s-0.5-2.6-1.5-3.6c-1-1-2.2-1.5-3.6-1.5C338.5,32.3,337.3,32.8,336.3,33.8 M336.9,40.5
			c-0.8-0.8-1.2-1.9-1.2-3.1c0-1.2,0.4-2.3,1.2-3.1c0.8-0.8,1.8-1.3,3-1.3c1.2,0,2.1,0.4,2.9,1.3c0.8,0.8,1.2,1.9,1.2,3.1
			c0,1.2-0.4,2.3-1.2,3.1c-0.8,0.8-1.8,1.2-2.9,1.2C338.7,41.8,337.7,41.4,336.9,40.5 M337.9,40.4h1v-2.6l0.8,0l1.7,2.6l1,0
			l-1.7-2.6c0.5,0,0.8-0.2,1.1-0.5c0.3-0.3,0.4-0.7,0.4-1.2c0-1.1-0.7-1.7-2-1.7h-2.3V40.4z M338.9,35.2h1.2c0.4,0,0.7,0.1,0.9,0.2
			c0.2,0.1,0.3,0.4,0.3,0.7c0,0.4-0.1,0.6-0.3,0.7c-0.2,0.1-0.5,0.2-0.9,0.2h-1.2V35.2z"/>
	</g>
</g>
</svg>
