<?xml version="1.0" encoding="utf-8"?>
<!-- Generator: Adobe Illustrator 19.2.1, SVG Export Plug-In . SVG Version: 6.00 Build 0)  -->
<svg version="1.1" id="Capa_1" xmlns="http://www.w3.org/2000/svg" xmlns:xlink="http://www.w3.org/1999/xlink" x="0px" y="0px"
	 viewBox="0 0 303 80" style="enable-background:new 0 0 303 80;" xml:space="preserve">
<style type="text/css">
	.st0{fill:#F2F2F2;}
</style>
<rect x="92.6" y="25.1" class="st0" width="12.1" height="34.9"/>
<g>
	<g>
		<path class="st0" d="M111.7,25.1h11v6.4h0.1c2.4-5,7.3-7.2,12.8-7.2c5,0,9.1,2.1,10.9,6.7c2.8-4.7,7.5-6.7,12.4-6.7
			c10.1,0,12.4,5.7,12.4,15.1v20.5h-12.1V41.2c0-3.9-1.4-6.9-4.8-6.9c-4.3,0-6.8,3.4-6.8,10.9v14.7h-12.1V41.2
			c0-3.9-1.4-6.9-4.8-6.9c-4.3,0-6.8,3.4-6.8,10.9v14.7h-12.1V25.1z"/>
	</g>
	<g>
		<path class="st0" d="M206.2,35c-2.2-1.3-4.4-1.9-7.3-1.9c-5.2,0-9.3,3.6-9.3,9.6c0,5.6,4.7,9.2,9.9,9.2c2.8,0,5.5-0.6,7.5-1.7
			l0.3,9c-3,1-6.6,1.5-9.9,1.5c-11.6,0-20.4-6.7-20.4-18.2c0-11.6,8.8-18.3,20.4-18.3c3.6,0,6.8,0.6,9.6,2L206.2,35z"/>
	</g>
	<g>
		<path class="st0" d="M279.4,35c-2.2-1.3-4.4-1.9-7.3-1.9c-5.2,0-9.3,3.6-9.3,9.6c0,5.6,4.7,9.2,9.9,9.2c2.7,0,5.5-0.6,7.5-1.7
			l0.3,9c-3,1-6.7,1.5-9.9,1.5c-11.6,0-20.3-6.7-20.3-18.2c0-11.6,8.8-18.3,20.3-18.3c3.6,0,6.9,0.6,9.6,2L279.4,35z"/>
	</g>
	<g>
		<path class="st0" d="M212.9,64.8c1.6,0.5,3.1,0.7,4.8,0.7c3,0,5.2-1.7,6.1-4.8l-14.2-35.7h13l7.5,22.8h0.1l7.2-22.8h12.1
			l-12.8,32.5c-3.4,8.8-6,17.3-17.1,17.3c-2.5,0-5-0.3-7.5-0.8L212.9,64.8z"/>
	</g>
	<g>
		<path class="st0" d="M31.2,31.1c2.4-3.1,6.2-5,10.4-5c4.2,0,7.9,2,10.4,5l18.5-10.7C64.3,11,53.6,4.8,41.5,4.8
			c-12.1,0-22.7,6.2-28.9,15.6L31.2,31.1z"/>
	</g>
	<g>
		<path class="st0" d="M39.6,52.2c-6.4-0.9-11.3-6.4-11.3-13c0-1.7,0.3-3.3,0.9-4.9L10.7,23.7C8.4,28.3,7,33.6,7,39.2
			c0,18.4,14.4,33.3,32.6,34.3V52.2z"/>
	</g>
	<g>
		<path class="st0" d="M72.3,23.7L53.8,34.3c0.6,1.5,0.9,3.1,0.9,4.9c0,6.6-4.9,12.1-11.3,13v21.3c18.2-1,32.6-15.9,32.6-34.3
			C76.1,33.6,74.7,28.3,72.3,23.7"/>
	</g>
	<g>
		<path class="st0" d="M287.2,27.4c-0.9,0.9-1.3,1.9-1.3,3.1s0.4,2.2,1.3,3.1c0.9,0.9,1.9,1.3,3.1,1.3c1.2,0,2.2-0.4,3.1-1.3
			c0.9-0.9,1.3-1.9,1.3-3.1s-0.4-2.2-1.3-3.1c-0.9-0.9-1.9-1.3-3.1-1.3C289,26.1,288,26.6,287.2,27.4 M287.7,33.1
			c-0.7-0.7-1-1.6-1-2.6c0-1,0.3-1.9,1-2.6c0.7-0.7,1.5-1.1,2.5-1.1c1,0,1.8,0.4,2.5,1.1c0.7,0.7,1,1.6,1,2.6c0,1.1-0.3,1.9-1,2.6
			c-0.7,0.7-1.5,1.1-2.5,1.1C289.2,34.2,288.4,33.8,287.7,33.1 M288.6,33h0.8v-2.3l0.7,0l1.4,2.3l0.9,0l-1.4-2.3
			c0.4,0,0.7-0.1,1-0.4c0.2-0.3,0.4-0.6,0.4-1c0-1-0.6-1.4-1.7-1.4h-2V33z M289.4,28.6h1c0.3,0,0.6,0.1,0.8,0.2
			c0.2,0.1,0.3,0.3,0.3,0.6c0,0.3-0.1,0.5-0.3,0.6c-0.2,0.1-0.4,0.2-0.8,0.2h-1V28.6z"/>
	</g>
</g>
</svg>
