<?xml version="1.0" encoding="utf-8"?>
<!-- Generator: Adobe Illustrator 19.2.1, SVG Export Plug-In . SVG Version: 6.00 Build 0)  -->
<svg version="1.1" id="Capa_1" xmlns="http://www.w3.org/2000/svg" xmlns:xlink="http://www.w3.org/1999/xlink" x="0px" y="0px"
	 viewBox="0 0 150 150" style="enable-background:new 0 0 150 150;" xml:space="preserve">
<style type="text/css">
	.st0{fill:#BC9A37;}
	.st1{font-family:'MyriadPro-Regular';}
	.st2{font-size:3.5207px;}
	.st3{fill:#FFFFFF;}
	.st4{fill:none;stroke:#BC9A37;stroke-width:0.3;stroke-miterlimit:10;}
	.st5{fill:#BC9A37;stroke:#FFFFFF;stroke-width:3.9374;stroke-miterlimit:10;}
	.st6{fill:#BC9A37;stroke:#F5F5F5;stroke-width:2;stroke-miterlimit:10;}
	.st7{font-family:'MyriadPro-BoldSemiCn';}
	.st8{font-size:15.1483px;}
</style>
<g>
	<path class="st0" d="M76.1,148.6c-40.4,0-73.2-32.8-73.2-73.2C2.9,35,35.8,2.2,76.1,2.2c40.3,0,73.2,32.8,73.2,73.2
		C149.3,115.7,116.5,148.6,76.1,148.6z M76.1,3.6C36.5,3.6,4.3,35.8,4.3,75.4c0,39.6,32.2,71.8,71.8,71.8
		c39.6,0,71.8-32.2,71.8-71.8C147.9,35.8,115.7,3.6,76.1,3.6z"/>
</g>
<text transform="matrix(1 0 0 1 115.6426 132.7051)" class="st0 st1 st2">R</text>
<rect x="53.1" y="78.5" class="st3" width="61.4" height="26.3"/>
<circle class="st4" cx="116.6" cy="131.5" r="2.1"/>
<g>
	<path class="st0" d="M63.8,64.3c3-3.8,7.7-6.3,12.9-6.3c5.2,0,9.9,2.5,12.9,6.3l23.1-13.3c-7.7-11.7-20.9-19.5-36-19.5
		c-15.1,0-28.3,7.8-36,19.5L63.8,64.3z"/>
	<path class="st0" d="M74.3,90.7c-8-1.2-14.1-8-14.1-16.2c0-2.1,0.4-4.2,1.2-6.1L38.4,55c-3,5.8-4.7,12.4-4.7,19.4
		c0,22.9,18,41.6,40.6,42.9V90.7z"/>
	<path class="st0" d="M115,55L91.9,68.4c0.7,1.9,1.2,3.9,1.2,6.1c0,8.3-6.1,15.1-14.1,16.2v26.6c22.6-1.2,40.6-19.9,40.6-42.9
		C119.7,67.4,118,60.9,115,55"/>
</g>
<g>
	<g>
		<path class="st0" d="M76.6,11.6c35,0,63.5,28.5,63.5,63.5c0,35-28.5,63.5-63.5,63.5c-35,0-63.5-28.5-63.5-63.5
			C13.1,40.1,41.5,11.6,76.6,11.6 M76.6,8.5C39.8,8.5,10,38.3,10,75.1c0,36.8,29.8,66.6,66.6,66.6c36.8,0,66.6-29.8,66.6-66.6
			C143.1,38.3,113.3,8.5,76.6,8.5L76.6,8.5z"/>
	</g>
	<g>
		<path class="st0" d="M76.6,135.4c-33.3,0-60.3-27.1-60.3-60.3c0-33.3,27.1-60.3,60.3-60.3c33.3,0,60.3,27.1,60.3,60.3
			C136.9,108.3,109.8,135.4,76.6,135.4z M76.6,15.8c-32.7,0-59.2,26.6-59.2,59.2c0,32.7,26.6,59.2,59.2,59.2
			c32.7,0,59.2-26.6,59.2-59.2C135.8,42.4,109.2,15.8,76.6,15.8z"/>
	</g>
	<g>
		<path class="st0" d="M41.8,107.8l-5.8,5.2l-1-1.1l5.8-5.2L41.8,107.8z"/>
		<path class="st0" d="M35.1,107.4c-0.4,0-0.8,0-1.1-0.2c-0.3-0.1-0.6-0.4-0.8-0.7c-0.5-0.6-0.6-1.2-0.3-1.7
			c0.3-0.5,0.7-0.9,1.3-1.4l2.6-1.9l0.8,1.1l-2.3,1.7c-0.1,0-0.1,0.1-0.2,0.1c-0.1,0-0.1,0.1-0.2,0.1c-0.2,0.2-0.4,0.4-0.6,0.7
			c-0.1,0.3-0.1,0.5,0.1,0.8c0.2,0.3,0.5,0.5,0.9,0.4c0.3,0,0.7-0.1,1-0.3c0.1,0,0.1-0.1,0.2-0.1s0.1-0.1,0.2-0.1l2.2-1.6l0.8,1.1
			l-2.9,2.2c-0.3,0.2-0.6,0.4-0.8,0.6c-0.3,0.2-0.5,0.4-0.8,0.7l-0.8-1.1L35.1,107.4z"/>
		<path class="st0" d="M35.1,101.5c0-0.2,0-0.5-0.1-0.7c0-0.2-0.1-0.5-0.3-0.7c0,0-0.1-0.1-0.1-0.1c0,0-0.1-0.1-0.1-0.1
			c-0.1-0.1-0.2-0.2-0.4-0.3c-0.1-0.1-0.3-0.1-0.5,0c-0.1,0.1-0.2,0.2-0.2,0.4c0,0.2,0,0.3,0,0.6c0,0.1,0,0.2,0,0.3
			c0,0.1,0,0.2,0,0.3c0,0.3,0,0.7-0.1,1c-0.1,0.3-0.3,0.6-0.7,0.9c-0.5,0.3-0.9,0.3-1.3,0.1c-0.4-0.2-0.8-0.5-1-0.8
			c-0.1-0.1-0.1-0.1-0.2-0.2c0-0.1-0.1-0.1-0.1-0.2c-0.1-0.2-0.2-0.4-0.3-0.6c-0.1-0.2-0.1-0.4-0.2-0.6l1-0.5c0,0.1,0.1,0.3,0.1,0.4
			c0,0.1,0.1,0.3,0.1,0.4c0,0.1,0.1,0.1,0.1,0.2c0,0.1,0.1,0.1,0.1,0.2c0,0,0.1,0.1,0.1,0.1c0,0.1,0.1,0.1,0.1,0.2
			c0.1,0.1,0.2,0.2,0.4,0.3c0.1,0.1,0.3,0.1,0.4,0c0.1-0.1,0.2-0.2,0.2-0.4c0-0.2,0-0.3,0-0.6c0-0.1,0-0.2-0.1-0.3
			c0-0.1,0-0.2,0-0.3c0-0.3,0-0.7,0-1c0.1-0.3,0.3-0.6,0.8-0.9c0.5-0.3,1-0.3,1.5-0.1c0.5,0.2,0.8,0.5,1.1,0.9c0,0,0.1,0.1,0.1,0.1
			c0,0,0,0.1,0.1,0.1c0.1,0.2,0.2,0.5,0.3,0.7c0.1,0.2,0.2,0.5,0.2,0.8L35.1,101.5z"/>
		<path class="st0" d="M32.7,94c0,0.1,0.1,0.1,0.1,0.2c0,0.1,0.1,0.1,0.1,0.2c0,0.1,0.1,0.1,0.1,0.2c0,0.1,0.1,0.1,0.1,0.2
			c0.3,0.6,0.3,1.2,0.1,1.6c-0.3,0.4-0.7,0.7-1.3,1l-2.2,1l0.4,0.9l-1,0.5l-0.4-0.9l-1.1,0.5l-1-1.1l1.5-0.7l-0.5-1.1l1-0.5l0.5,1.1
			l1.9-0.9c0,0,0,0,0.1,0c0,0,0,0,0.1,0c0.3-0.1,0.5-0.3,0.7-0.5c0.2-0.2,0.2-0.4,0.1-0.8c0,0,0-0.1-0.1-0.1c0,0,0-0.1-0.1-0.1
			c0,0,0-0.1-0.1-0.1c0,0-0.1-0.1-0.1-0.1L32.7,94z"/>
		<path class="st0" d="M26.1,95.7l-1.3,0.5l-0.5-1.3l1.3-0.5L26.1,95.7z M32.5,93.2l-5.4,2.1L26.6,94l5.4-2.1L32.5,93.2z"/>
		<path class="st0" d="M30.6,87.8c0,0.1,0.1,0.1,0.1,0.2c0,0.1,0.1,0.1,0.1,0.2c0,0.1,0.1,0.1,0.1,0.2c0,0.1,0.1,0.1,0.1,0.2
			c0.2,0.7,0.2,1.2-0.2,1.6c-0.3,0.4-0.8,0.6-1.5,0.8L27,91.7l0.3,1L26.3,93L26,92l-1.1,0.3L24,91.2l1.6-0.5l-0.4-1.2l1.1-0.3
			l0.4,1.2l2-0.6c0,0,0,0,0.1,0c0,0,0,0,0.1,0c0.3-0.1,0.6-0.2,0.8-0.4c0.2-0.2,0.3-0.4,0.2-0.8c0,0,0-0.1,0-0.1c0,0,0-0.1-0.1-0.1
			c0,0,0-0.1-0.1-0.1c0,0,0-0.1-0.1-0.1L30.6,87.8z"/>
		<path class="st0" d="M27.3,82.7c0.1,0,0.2,0,0.3-0.1c0.1,0,0.2,0,0.3-0.1c0.1,0,0.2,0,0.3-0.1c0.1,0,0.2,0,0.3-0.1
			c0.2,0,0.4-0.1,0.6-0.1c0.2,0,0.4-0.1,0.5-0.1l0.3,1.3l-0.9,0.2c0.3,0.1,0.6,0.3,0.8,0.6c0.2,0.3,0.4,0.6,0.4,0.9
			c0.2,0.8,0,1.3-0.4,1.7c-0.4,0.3-1,0.6-1.7,0.7l-3.2,0.6l-0.3-1.4l2.7-0.5c0.1,0,0.2,0,0.3-0.1c0.1,0,0.2,0,0.3-0.1
			c0.3-0.1,0.6-0.2,0.8-0.4c0.2-0.2,0.3-0.4,0.3-0.8c-0.1-0.4-0.3-0.6-0.6-0.7c-0.3-0.1-0.6-0.1-0.9-0.1c-0.1,0-0.2,0-0.3,0
			c-0.1,0-0.2,0-0.3,0l-2.6,0.5l-0.3-1.4L27.3,82.7z"/>
		<path class="st0" d="M29,77.9c0,0.1,0,0.2,0.1,0.2c0,0.1,0,0.2,0,0.2c0,0.1,0,0.2,0,0.2c0,0.1,0,0.2,0,0.2
			c0.1,0.7-0.1,1.2-0.5,1.5c-0.4,0.3-0.9,0.5-1.6,0.5l-2.4,0.2l0.1,1l-1.1,0.1l-0.1-1l-1.2,0.1l-0.6-1.3l1.7-0.2l-0.1-1.2l1.1-0.1
			l0.1,1.2l2.1-0.2c0,0,0,0,0.1,0c0,0,0,0,0.1,0c0.3,0,0.6-0.1,0.8-0.2c0.3-0.1,0.4-0.3,0.3-0.7c0,0,0-0.1,0-0.1c0,0,0-0.1,0-0.1
			s0-0.1,0-0.1c0,0,0-0.1,0-0.1L29,77.9z"/>
		<path class="st0" d="M28.4,72.6c0.5,0.5,0.8,1.2,0.8,2c0,0.8-0.3,1.5-0.9,2c-0.6,0.5-1.3,0.7-2.2,0.7c-0.9,0-1.6-0.3-2.2-0.8
			c-0.5-0.5-0.8-1.2-0.8-2c0-0.8,0.3-1.5,0.9-2c0.6-0.5,1.3-0.7,2.2-0.7C27.1,71.9,27.8,72.1,28.4,72.6z M26,73.3
			c-0.1,0-0.1,0-0.2,0c-0.4,0-0.7,0.2-1.1,0.4c-0.3,0.2-0.5,0.5-0.5,0.9c0,0.4,0.1,0.7,0.5,0.9c0.3,0.2,0.7,0.4,1,0.4
			c0.1,0,0.1,0,0.2,0c0.1,0,0.1,0,0.2,0c0.1,0,0.1,0,0.2,0c0.1,0,0.1,0,0.2,0c0.4,0,0.8-0.2,1.1-0.4c0.3-0.2,0.5-0.5,0.5-1
			c0-0.4-0.1-0.7-0.4-0.9c-0.3-0.2-0.6-0.3-1-0.4c-0.1,0-0.1,0-0.2,0c-0.1,0-0.1,0-0.2,0C26.1,73.3,26,73.3,26,73.3z"/>
		<path class="st0" d="M31,61.4l-4.5-1.1c-0.3-0.1-0.7-0.2-1-0.3c-0.3-0.1-0.7-0.2-1-0.3l0,0c0.1,0.1,0.2,0.1,0.4,0.2
			c0.1,0.1,0.2,0.1,0.4,0.2l5.3,3.2l-0.3,1.3l-5.1,0.4c-0.3,0-0.6,0-0.9,0c-0.3,0-0.6,0-0.9,0l0,0c0.2,0,0.3,0.1,0.5,0.1
			c0.2,0,0.3,0.1,0.5,0.1c0.2,0,0.3,0.1,0.5,0.1c0.2,0,0.3,0.1,0.5,0.1l4.5,1.1L29.4,68l-7.5-1.8l0.5-2.3l4.3-0.3c0.3,0,0.7,0,1,0
			c0.3,0,0.7,0,1,0c-0.3-0.1-0.5-0.2-0.7-0.4c-0.2-0.1-0.5-0.2-0.7-0.4l-4-2.4l0.6-2.3l7.5,1.8L31,61.4z"/>
		<path class="st0" d="M33.3,54.7c0,0.3,0,0.5-0.1,0.8c-0.1,0.3-0.1,0.5-0.2,0.8c0,0,0,0.1,0,0.1c0,0,0,0.1-0.1,0.1
			c-0.3,0.8-0.9,1.4-1.5,1.6c-0.7,0.3-1.5,0.2-2.3-0.2c-0.8-0.3-1.4-0.8-1.7-1.5c-0.4-0.6-0.4-1.4,0-2.1c0.3-0.8,0.8-1.2,1.5-1.3
			s1.4,0,2.2,0.3c0,0,0.1,0,0.1,0.1c0,0,0.1,0,0.1,0.1c0,0,0,0,0,0c0,0,0,0,0,0c0,0,0.1,0,0.1,0c0,0,0,0,0.1,0l-1.4,3.3
			c0.4,0.1,0.8,0.1,1.2-0.1c0.3-0.2,0.6-0.5,0.8-0.9c0.1-0.3,0.2-0.6,0.2-0.9c0-0.3,0-0.6-0.1-0.9L33.3,54.7z M29,54.2
			c-0.3,0-0.6,0.2-0.7,0.6c-0.2,0.4-0.1,0.7,0.1,1c0.2,0.3,0.4,0.5,0.8,0.7l0.9-2.2C29.7,54.2,29.3,54.2,29,54.2z"/>
		<path class="st0" d="M35.8,50.8l-2,0c0,0-0.1,0-0.1,0c0,0-0.1,0-0.1,0c0,0-0.1,0-0.1,0c0,0-0.1,0-0.1,0c0,0,0.1,0.1,0.1,0.2
			c0,0.1,0.1,0.1,0.1,0.2c0,0,0,0,0,0c0,0,0,0,0,0l1,1.7l-0.8,1.3l-1.7-3.1l-3.2,0.1l0.8-1.4l1.8,0c0,0,0,0,0.1,0c0,0,0,0,0.1,0
			c0,0,0.1,0,0.1,0c0,0,0.1,0,0.1,0c0-0.1-0.1-0.1-0.1-0.2c0-0.1-0.1-0.1-0.1-0.2l-0.9-1.4l0.7-1.3l1.6,2.8l3.5-0.1L35.8,50.8z"/>
		<path class="st0" d="M31.4,44.9l-1.2-0.8l0.8-1.2l1.2,0.8L31.4,44.9z M37,48.8l-4.7-3.3l0.8-1.1l4.7,3.3L37,48.8z"/>
		<path class="st0" d="M40.8,43.6c-0.1,0.2-0.2,0.4-0.3,0.6c-0.1,0.2-0.2,0.4-0.4,0.5c-0.5,0.7-1.2,1-1.9,1.1
			c-0.7,0.1-1.4-0.2-2.2-0.8c-0.7-0.5-1.1-1.2-1.2-1.9c-0.1-0.7,0.1-1.4,0.6-2c0.1-0.2,0.3-0.3,0.4-0.4c0.1-0.1,0.3-0.3,0.5-0.4
			l0.9,0.8c0,0-0.1,0-0.1,0.1c0,0-0.1,0-0.1,0.1c-0.1,0.1-0.2,0.1-0.3,0.2c-0.1,0.1-0.2,0.1-0.2,0.2c-0.3,0.4-0.4,0.7-0.3,1.2
			c0.1,0.4,0.3,0.8,0.7,1.1c0.4,0.3,0.8,0.5,1.2,0.5c0.4,0,0.8-0.2,1.1-0.6c0.1-0.1,0.2-0.3,0.3-0.4c0.1-0.1,0.1-0.3,0.2-0.5
			L40.8,43.6z"/>
		<path class="st0" d="M43.7,40.8l-0.6-0.6c0.1,0.3,0.1,0.7,0,1c-0.1,0.3-0.3,0.6-0.5,0.8c-0.4,0.4-0.8,0.6-1.2,0.6
			c-0.5,0.1-0.9-0.1-1.3-0.6c-0.5-0.5-0.6-0.9-0.5-1.4c0.1-0.5,0.3-0.9,0.7-1.3c0.1-0.1,0.1-0.2,0.2-0.3c0.1-0.1,0.2-0.2,0.2-0.2
			c0,0,0.1-0.1,0.1-0.1c0,0,0.1-0.1,0.1-0.1c0,0,0,0,0.1,0c0,0,0,0,0.1,0c0,0,0.1-0.1,0.1-0.1c0,0,0.1-0.1,0.1-0.1
			c-0.3-0.3-0.6-0.5-0.9-0.5c-0.3,0-0.6,0.1-0.9,0.4c0,0,0,0,0,0c0,0,0,0,0,0c-0.2,0.2-0.3,0.5-0.4,0.7c-0.1,0.3-0.2,0.5-0.2,0.8
			l-0.9-0.9c0.1-0.3,0.3-0.6,0.4-0.9c0.2-0.3,0.4-0.5,0.6-0.7c0.1-0.1,0.1-0.1,0.2-0.2c0.1-0.1,0.1-0.1,0.2-0.2
			c0.2-0.2,0.5-0.3,0.8-0.4c0.3-0.1,0.6-0.1,0.9-0.1c0.2,0,0.4,0.1,0.6,0.2c0.2,0.1,0.4,0.3,0.5,0.4c0,0,0.1,0.1,0.1,0.1
			c0,0,0.1,0.1,0.1,0.1c0.4,0.4,0.8,0.8,1.2,1.2c0.4,0.4,0.8,0.8,1.2,1.2L43.7,40.8z M41.7,39.1C41.7,39.1,41.7,39.1,41.7,39.1
			l-0.2,0.2c-0.1,0.1-0.1,0.1-0.2,0.2c-0.1,0.1-0.1,0.2-0.2,0.3c-0.2,0.2-0.3,0.5-0.4,0.7c-0.1,0.3,0,0.5,0.2,0.7
			c0.2,0.2,0.4,0.2,0.6,0.2c0.2,0,0.4-0.1,0.5-0.3c0.3-0.3,0.4-0.7,0.3-1c-0.1-0.4-0.3-0.7-0.6-1C41.8,39.1,41.8,39.1,41.7,39.1
			C41.8,39,41.8,39,41.7,39.1C41.8,39,41.8,39.1,41.7,39.1z"/>
		<path class="st0" d="M43.5,34.5c0-0.4,0-0.8,0.1-1.1c0.1-0.3,0.4-0.6,0.7-0.8c0.6-0.5,1.2-0.6,1.7-0.3c0.5,0.3,1,0.7,1.4,1.2
			l2,2.6L48.3,37l-1.8-2.3c0-0.1-0.1-0.1-0.1-0.2c0-0.1-0.1-0.1-0.1-0.2c-0.2-0.2-0.5-0.4-0.7-0.6c-0.3-0.1-0.5-0.1-0.8,0.1
			c-0.3,0.2-0.4,0.5-0.4,0.9c0,0.3,0.2,0.7,0.3,0.9c0,0.1,0.1,0.1,0.1,0.2c0,0.1,0.1,0.1,0.1,0.2l1.7,2.2l-1.1,0.9l-2.3-2.9
			c-0.2-0.3-0.4-0.5-0.7-0.8c-0.2-0.3-0.4-0.5-0.7-0.8l1-0.8L43.5,34.5z"/>
		<path class="st0" d="M53.8,32.6c-0.2,0.7-0.6,1.3-1.3,1.7c-0.7,0.4-1.5,0.5-2.2,0.3c-0.7-0.2-1.3-0.7-1.8-1.5
			c-0.5-0.8-0.6-1.5-0.4-2.3c0.2-0.7,0.6-1.3,1.3-1.7c0.7-0.4,1.5-0.5,2.2-0.3c0.7,0.2,1.3,0.7,1.8,1.5C53.9,31.1,54,31.9,53.8,32.6
			z M52,30.9c0-0.1-0.1-0.1-0.1-0.2c-0.2-0.3-0.5-0.5-0.9-0.7c-0.3-0.2-0.7-0.2-1.1,0.1c-0.3,0.2-0.5,0.5-0.6,0.9
			c0,0.4,0,0.7,0.2,1.1c0,0.1,0.1,0.1,0.1,0.2c0,0.1,0.1,0.1,0.1,0.2c0,0,0.1,0.1,0.1,0.1c0,0,0.1,0.1,0.1,0.1
			c0.2,0.3,0.5,0.6,0.9,0.8c0.4,0.2,0.7,0.2,1.1-0.1c0.3-0.2,0.5-0.5,0.5-0.9c0-0.4,0-0.7-0.2-1.1c0-0.1-0.1-0.1-0.1-0.2
			c0-0.1-0.1-0.1-0.1-0.2C52.1,31,52.1,31,52,30.9z"/>
		<path class="st0" d="M61.7,30l-0.3-0.9c0,0.4-0.2,0.7-0.4,1c-0.2,0.3-0.5,0.5-0.9,0.6c-0.8,0.3-1.4,0.2-1.9-0.3
			c-0.5-0.5-0.9-1-1.2-1.8c0,0,0,0,0,0c0,0,0,0,0,0c-0.2-0.7-0.3-1.4-0.2-2.1c0.1-0.7,0.6-1.2,1.3-1.4c0.4-0.1,0.7-0.2,1-0.1
			c0.3,0.1,0.6,0.2,0.9,0.5c-0.1-0.2-0.1-0.3-0.2-0.5c-0.1-0.2-0.1-0.3-0.2-0.5l-0.9-2.4l1.3-0.5l2.3,6.3c0,0,0,0.1,0,0.1
			c0,0,0,0.1,0,0.1c0,0,0,0.1,0,0.1c0,0,0,0.1,0,0.1c0,0.1,0.1,0.2,0.1,0.3c0,0.1,0.1,0.2,0.1,0.3c0,0.1,0.1,0.2,0.1,0.3
			c0,0.1,0.1,0.2,0.1,0.3L61.7,30z M60.6,27.2c0-0.1,0-0.1-0.1-0.2c-0.2-0.3-0.4-0.6-0.7-0.8c-0.3-0.2-0.6-0.3-1-0.1
			c-0.4,0.1-0.6,0.4-0.7,0.7c-0.1,0.3,0,0.7,0.1,1.1c0,0,0,0.1,0,0.1c0,0,0,0.1,0,0.1c0,0.1,0.1,0.1,0.1,0.2c0,0.1,0.1,0.1,0.1,0.2
			c0.2,0.3,0.4,0.5,0.6,0.7c0.3,0.2,0.6,0.2,0.9,0.1c0.4-0.1,0.6-0.4,0.7-0.7c0.1-0.3,0.1-0.7,0-1c0-0.1,0-0.1,0-0.2s0-0.1-0.1-0.2
			C60.7,27.3,60.6,27.2,60.6,27.2z"/>
		<path class="st0" d="M68.3,28c-0.2,0.2-0.4,0.3-0.7,0.4c-0.2,0.1-0.5,0.2-0.8,0.3c0,0-0.1,0-0.1,0c0,0-0.1,0-0.1,0
			c-0.9,0.2-1.6,0.1-2.2-0.3c-0.6-0.4-1-1.1-1.2-2c-0.2-0.8-0.1-1.6,0.2-2.3c0.3-0.7,0.9-1.1,1.7-1.3c0.8-0.2,1.5,0,2,0.5
			c0.5,0.5,0.8,1.1,1,1.9c0,0,0,0.1,0,0.1c0,0,0,0.1,0,0.1c0,0,0,0,0,0c0,0,0,0,0,0c0,0,0,0.1,0,0.1c0,0,0,0.1,0,0.1l-3.5,0.8
			c0.1,0.4,0.4,0.8,0.7,0.9c0.4,0.2,0.7,0.2,1.1,0.1c0.3-0.1,0.6-0.2,0.8-0.4c0.2-0.2,0.5-0.4,0.7-0.6L68.3,28z M66.2,24.2
			C66,24,65.7,23.9,65.3,24c-0.4,0.1-0.6,0.3-0.8,0.6c-0.1,0.3-0.2,0.7-0.1,1.1l2.3-0.5C66.6,24.8,66.5,24.5,66.2,24.2z"/>
		<path class="st0" d="M69.7,28.1l-1.1-8.3l1.4-0.2l1.1,8.3L69.7,28.1z"/>
		<path class="st0" d="M80.7,27.5c-0.3,0.1-0.5,0.1-0.8,0.2c-0.3,0-0.6,0.1-0.8,0c-1.1,0-2.1-0.4-2.8-1c-0.7-0.7-1.1-1.6-1.1-2.9
			c0-1.3,0.4-2.3,1.1-3c0.7-0.7,1.7-1,2.8-1c0.2,0,0.5,0,0.7,0.1c0.2,0,0.5,0.1,0.7,0.2c0.1,0,0.1,0,0.2,0.1c0.1,0,0.1,0,0.2,0.1
			l-0.1,1.3c-0.2-0.1-0.5-0.3-0.7-0.3c-0.3-0.1-0.5-0.1-0.8-0.1c-0.7,0-1.3,0.2-1.7,0.7c-0.4,0.5-0.7,1.1-0.7,1.9
			c0,0.8,0.2,1.5,0.6,2c0.4,0.5,1,0.8,1.8,0.8c0.3,0,0.5,0,0.8-0.1c0.3-0.1,0.5-0.1,0.8-0.2L80.7,27.5z"/>
		<path class="st0" d="M85.7,28.2c-0.3,0.1-0.5,0.1-0.8,0.1c-0.3,0-0.5,0-0.8,0c0,0-0.1,0-0.1,0c0,0-0.1,0-0.1,0
			c-0.9-0.1-1.5-0.5-1.9-1.1c-0.4-0.6-0.6-1.4-0.4-2.3c0.1-0.9,0.5-1.5,1-2.1c0.5-0.5,1.2-0.7,2.1-0.6c0.8,0.1,1.4,0.5,1.7,1.1
			c0.3,0.6,0.4,1.4,0.3,2.2c0,0,0,0.1,0,0.1c0,0,0,0.1,0,0.1c0,0,0,0,0,0c0,0,0,0,0,0c0,0,0,0.1,0,0.1c0,0,0,0.1,0,0.1l-3.6-0.5
			c0,0.5,0.1,0.8,0.4,1.1c0.3,0.3,0.6,0.5,1,0.5c0.3,0,0.6,0,0.9,0c0.3-0.1,0.6-0.2,0.9-0.3L85.7,28.2z M85.1,23.9
			c-0.1-0.3-0.4-0.5-0.8-0.6c-0.4-0.1-0.7,0-0.9,0.3c-0.2,0.3-0.4,0.6-0.5,0.9l2.3,0.3C85.3,24.5,85.2,24.2,85.1,23.9z"/>
		<path class="st0" d="M89.6,24.3c0.3-0.2,0.6-0.4,0.9-0.5c0.3-0.1,0.7-0.1,1,0c0.4,0.1,0.6,0.3,0.8,0.5c0.2,0.2,0.3,0.5,0.3,0.9
			c0.3-0.3,0.6-0.4,0.9-0.5c0.3-0.1,0.7-0.1,1,0c0.7,0.2,1.1,0.6,1.1,1.2c0,0.6,0,1.1-0.2,1.8l-1,3.2l-1.3-0.4l0.8-2.7l0.1-0.2
			c0-0.1,0-0.1,0.1-0.2c0-0.1,0-0.1,0.1-0.2c0.1-0.3,0.1-0.5,0-0.8c0-0.3-0.2-0.4-0.5-0.5c-0.3-0.1-0.6,0-0.8,0.2
			c-0.2,0.2-0.4,0.5-0.5,0.7c-0.1,0.1-0.1,0.2-0.1,0.3c0,0.1-0.1,0.2-0.1,0.3l-0.8,2.5L90,29.5l0.9-2.8l0.1-0.4c0-0.1,0-0.1,0-0.2
			c0,0,0-0.1,0-0.2c0-0.2,0-0.5,0-0.7c-0.1-0.2-0.2-0.4-0.5-0.4c-0.3-0.1-0.6,0-0.8,0.2c-0.2,0.2-0.4,0.4-0.5,0.7
			c0,0.1-0.1,0.2-0.1,0.2c0,0.1-0.1,0.2-0.1,0.2L88.2,29l-1.3-0.4l1.3-4.2c0-0.1,0.1-0.2,0.1-0.3c0-0.1,0.1-0.2,0.1-0.3
			c0-0.1,0.1-0.2,0.1-0.3c0-0.1,0.1-0.2,0.1-0.3l1.3,0.4L89.6,24.3z"/>
		<path class="st0" d="M99.5,33.1c-0.3,0-0.5,0-0.8-0.1c-0.3-0.1-0.5-0.1-0.8-0.3c0,0-0.1,0-0.1,0c0,0-0.1,0-0.1-0.1
			c-0.8-0.4-1.3-0.9-1.5-1.6c-0.2-0.7-0.1-1.5,0.3-2.3c0.4-0.8,0.9-1.3,1.6-1.7c0.7-0.3,1.4-0.3,2.1,0.1c0.8,0.4,1.2,0.9,1.3,1.6
			c0.1,0.7-0.1,1.4-0.4,2.2c0,0,0,0.1-0.1,0.1c0,0,0,0.1-0.1,0.1c0,0,0,0,0,0c0,0,0,0,0,0c0,0,0,0.1,0,0.1c0,0,0,0,0,0.1l-3.3-1.6
			c-0.2,0.4-0.2,0.8,0,1.2c0.2,0.4,0.4,0.6,0.8,0.8c0.3,0.1,0.6,0.2,0.9,0.2c0.3,0,0.6,0,0.9,0L99.5,33.1z M100.2,28.8
			c0-0.3-0.2-0.6-0.6-0.8c-0.4-0.2-0.7-0.2-1,0c-0.3,0.2-0.6,0.4-0.8,0.7l2.1,1C100.1,29.5,100.2,29.1,100.2,28.8z"/>
		<path class="st0" d="M104.2,30.6c0.4-0.2,0.7-0.2,1.1-0.2c0.3,0,0.7,0.1,1,0.4c0.7,0.4,0.9,0.9,0.8,1.5c-0.1,0.6-0.3,1.1-0.7,1.7
			l-1.8,2.7l-1.2-0.8l1.6-2.4c0-0.1,0.1-0.1,0.1-0.2c0-0.1,0.1-0.1,0.1-0.2c0.2-0.3,0.3-0.6,0.3-0.9c0-0.3-0.1-0.5-0.4-0.8
			c-0.3-0.2-0.6-0.2-0.9-0.1c-0.3,0.2-0.6,0.4-0.8,0.6c-0.1,0.1-0.1,0.1-0.2,0.2c0,0.1-0.1,0.1-0.1,0.2l-1.5,2.3l-1.2-0.8l2-3.1
			c0.2-0.3,0.4-0.6,0.6-0.9c0.2-0.3,0.4-0.6,0.5-0.9l1.1,0.7L104.2,30.6z"/>
		<path class="st0" d="M108,39.2c-0.1,0-0.1-0.1-0.2-0.1c-0.1,0-0.1-0.1-0.2-0.1c-0.1,0-0.1-0.1-0.2-0.1c-0.1,0-0.1-0.1-0.2-0.1
			c-0.6-0.4-0.8-0.9-0.7-1.4c0.1-0.5,0.3-1,0.7-1.5l1.5-1.9l-0.8-0.6l0.7-0.9l0.8,0.7l0.7-0.9l1.4,0.5l-1,1.3l1,0.8l-0.7,0.9l-1-0.8
			l-1.3,1.6c0,0,0,0,0,0c0,0,0,0,0,0c-0.2,0.2-0.3,0.5-0.4,0.7c-0.1,0.3,0,0.5,0.3,0.7c0,0,0.1,0.1,0.1,0.1c0,0,0.1,0,0.1,0.1
			c0,0,0.1,0,0.1,0c0,0,0.1,0,0.1,0.1L108,39.2z"/>
		<path class="st0" d="M112.2,42.5c-0.7,0-1.4-0.3-2-0.9c-0.6-0.6-0.9-1.3-0.8-2c0-0.8,0.4-1.5,1-2.1c0.6-0.6,1.3-1,2.1-1
			c0.8,0,1.4,0.3,2,0.8c0.6,0.6,0.9,1.3,0.8,2.1c-0.1,0.8-0.4,1.5-1,2.1C113.6,42.1,113,42.5,112.2,42.5z M113.4,40.3
			c0,0,0.1-0.1,0.1-0.1c0.2-0.3,0.4-0.7,0.5-1c0.1-0.4,0-0.7-0.3-1c-0.3-0.3-0.6-0.4-1-0.3c-0.4,0.1-0.7,0.2-1,0.4
			c-0.1,0-0.1,0.1-0.2,0.1c0,0-0.1,0.1-0.1,0.1c0,0-0.1,0.1-0.1,0.1c0,0-0.1,0.1-0.1,0.1c-0.3,0.3-0.4,0.7-0.5,1.1
			c-0.1,0.4,0,0.7,0.3,1.1c0.3,0.3,0.6,0.4,1,0.3c0.4-0.1,0.7-0.2,1-0.4c0.1,0,0.1-0.1,0.2-0.1c0.1,0,0.1-0.1,0.2-0.1
			C113.3,40.4,113.4,40.4,113.4,40.3z"/>
		<path class="st0" d="M113.6,47C113.6,47,113.7,47.1,113.6,47c0,0.1,0,0.2,0.1,0.2c0,0.1,0.1,0.1,0.1,0.2c0,0.1,0.1,0.1,0.1,0.2
			c0.2,0.3,0.4,0.4,0.6,0.4c0.2,0,0.5,0,0.8-0.1l3.8-5.2l0.9,1.3l-2.3,2.9c0,0.1-0.1,0.1-0.1,0.2c0,0.1-0.1,0.1-0.1,0.2
			c0,0.1-0.1,0.1-0.1,0.2c0,0.1-0.1,0.1-0.1,0.2c0.1,0,0.1,0,0.2-0.1c0.1,0,0.1,0,0.2-0.1c0.1,0,0.2-0.1,0.3-0.1
			c0.1,0,0.2-0.1,0.3-0.1l3.3-1l0.8,1.2L116,49c-0.6,0.1-1.1,0.2-1.6,0.2c-0.5,0-0.9-0.3-1.3-0.8c-0.1-0.1-0.1-0.2-0.2-0.3
			c0-0.1-0.1-0.2-0.1-0.3c0-0.1-0.1-0.1-0.1-0.1c0,0,0-0.1-0.1-0.2L113.6,47z"/>
		<path class="st0" d="M120.7,57l0.9-0.4c-0.4,0-0.7-0.1-1-0.3c-0.3-0.2-0.5-0.5-0.6-0.8c-0.3-0.7-0.3-1.4,0.1-2
			c0.4-0.6,1-1,1.7-1.3c0,0,0,0,0,0c0,0,0,0,0,0c0.7-0.3,1.4-0.4,2.1-0.3c0.7,0.1,1.2,0.5,1.5,1.2c0.2,0.4,0.2,0.7,0.2,1
			c-0.1,0.3-0.2,0.6-0.4,0.9c0.1-0.1,0.3-0.2,0.5-0.2c0.2-0.1,0.3-0.1,0.5-0.2l2.3-1l0.6,1.3l-6.1,2.7c0,0-0.1,0-0.1,0
			c0,0-0.1,0-0.1,0c0,0-0.1,0-0.1,0.1c0,0-0.1,0-0.1,0.1c-0.1,0-0.2,0.1-0.3,0.1c-0.1,0-0.2,0.1-0.3,0.1c-0.1,0-0.2,0.1-0.3,0.1
			c-0.1,0-0.2,0.1-0.3,0.1L120.7,57z M123.4,55.7c0.1,0,0.1-0.1,0.1-0.1c0.3-0.2,0.6-0.4,0.8-0.7c0.2-0.3,0.2-0.6,0.1-1
			c-0.2-0.4-0.4-0.6-0.8-0.6c-0.3,0-0.7,0-1,0.1c0,0-0.1,0-0.1,0.1c0,0-0.1,0-0.1,0.1c-0.1,0-0.1,0.1-0.2,0.1
			c-0.1,0-0.1,0.1-0.2,0.1c-0.3,0.2-0.5,0.4-0.7,0.7c-0.2,0.3-0.2,0.6-0.1,0.9c0.2,0.3,0.4,0.5,0.8,0.6c0.3,0.1,0.7,0,1-0.1
			c0.1,0,0.1,0,0.2-0.1c0.1,0,0.1,0,0.2-0.1C123.3,55.7,123.3,55.7,123.4,55.7z"/>
		<path class="st0" d="M123.1,63.4c-0.2-0.2-0.3-0.4-0.5-0.7c-0.1-0.2-0.2-0.5-0.3-0.7c0,0,0-0.1-0.1-0.1c0,0,0-0.1,0-0.1
			c-0.3-0.8-0.2-1.6,0.2-2.2c0.4-0.6,1-1.1,1.9-1.4c0.8-0.3,1.6-0.2,2.3,0c0.7,0.3,1.2,0.8,1.4,1.6c0.2,0.8,0.1,1.5-0.3,2
			c-0.5,0.5-1.1,0.9-1.9,1.2c0,0-0.1,0-0.1,0c0,0-0.1,0-0.1,0c0,0,0,0,0,0c0,0,0,0,0,0c0,0-0.1,0-0.1,0c0,0-0.1,0-0.1,0l-1.1-3.5
			c-0.4,0.2-0.7,0.4-0.9,0.8c-0.1,0.4-0.2,0.7,0,1.1c0.1,0.3,0.2,0.6,0.4,0.8c0.2,0.2,0.4,0.4,0.6,0.7L123.1,63.4z M126.7,61
			c0.2-0.2,0.3-0.6,0.2-0.9c-0.1-0.4-0.3-0.6-0.7-0.7c-0.3-0.1-0.7-0.1-1.1,0l0.7,2.3C126.2,61.4,126.5,61.3,126.7,61z"/>
		<path class="st0" d="M123.1,64.8l8.2-1.7l0.3,1.4l-8.2,1.7L123.1,64.8z"/>
		<path class="st0" d="M124.6,75.7c-0.1-0.3-0.2-0.5-0.2-0.8c-0.1-0.3-0.1-0.6-0.1-0.8c-0.1-1.1,0.2-2.1,0.8-2.9
			c0.6-0.8,1.5-1.2,2.8-1.3c1.3-0.1,2.3,0.2,3,0.9c0.7,0.7,1.1,1.6,1.2,2.8c0,0.2,0,0.5,0,0.7c0,0.2-0.1,0.5-0.1,0.7
			c0,0.1,0,0.1,0,0.2c0,0.1,0,0.1,0,0.2l-1.3,0c0.1-0.2,0.2-0.5,0.3-0.8c0.1-0.3,0.1-0.5,0.1-0.8c0-0.7-0.3-1.3-0.8-1.7
			c-0.5-0.4-1.1-0.6-1.9-0.5c-0.8,0-1.4,0.3-1.9,0.8c-0.5,0.5-0.7,1.1-0.7,1.9c0,0.3,0.1,0.5,0.1,0.8c0.1,0.3,0.2,0.5,0.3,0.7
			L124.6,75.7z"/>
		<path class="st0" d="M124.7,80.9c-0.5-0.6-0.7-1.3-0.7-2.1c0.1-0.8,0.4-1.5,1-2c0.6-0.5,1.4-0.7,2.3-0.6c0.9,0.1,1.6,0.4,2.1,0.9
			c0.5,0.6,0.7,1.2,0.7,2.1c-0.1,0.8-0.4,1.5-1,2c-0.6,0.5-1.4,0.7-2.3,0.6C125.9,81.8,125.2,81.5,124.7,80.9z M127.1,80.4
			c0.1,0,0.1,0,0.2,0c0.4,0,0.8-0.1,1.1-0.3c0.3-0.2,0.5-0.5,0.6-0.9c0-0.4-0.1-0.7-0.4-1c-0.3-0.2-0.6-0.4-1-0.5
			c-0.1,0-0.1,0-0.2,0c-0.1,0-0.1,0-0.2,0c-0.1,0-0.1,0-0.2,0c-0.1,0-0.1,0-0.2,0c-0.4,0-0.8,0.1-1.1,0.3c-0.4,0.2-0.6,0.5-0.6,0.9
			c0,0.4,0.1,0.7,0.4,0.9c0.3,0.2,0.6,0.4,1,0.5c0.1,0,0.1,0,0.2,0c0.1,0,0.1,0,0.2,0C127,80.4,127,80.4,127.1,80.4z"/>
		<path class="st0" d="M128.3,84.8c0.3,0.3,0.5,0.6,0.6,0.9c0.1,0.3,0.1,0.7,0,1.1c-0.2,0.8-0.5,1.2-1.1,1.3c-0.6,0.1-1.2,0.1-1.9,0
			l-3.2-0.7l0.3-1.4l2.8,0.6c0.1,0,0.1,0,0.2,0c0.1,0,0.1,0,0.2,0c0.3,0,0.6,0,0.9,0c0.3-0.1,0.5-0.3,0.6-0.7c0.1-0.4,0-0.7-0.3-0.9
			c-0.3-0.2-0.5-0.4-0.9-0.5c-0.1,0-0.2-0.1-0.2-0.1c-0.1,0-0.2,0-0.2-0.1l-2.7-0.6l0.3-1.4l3.6,0.7c0.3,0.1,0.7,0.1,1,0.2
			c0.3,0.1,0.7,0.1,1,0.2l-0.3,1.3L128.3,84.8z"/>
		<path class="st0" d="M121.5,92.1c0-0.2,0-0.4,0-0.6c0-0.2,0.1-0.4,0.1-0.6c0.3-0.8,0.7-1.4,1.4-1.7c0.7-0.3,1.4-0.3,2.3,0
			c0.8,0.3,1.4,0.7,1.8,1.4c0.4,0.6,0.4,1.4,0.2,2.1c-0.1,0.2-0.1,0.4-0.2,0.6c-0.1,0.2-0.2,0.3-0.3,0.5l-1.1-0.5c0,0,0-0.1,0.1-0.1
			c0,0,0-0.1,0.1-0.1c0.1-0.1,0.1-0.2,0.2-0.3c0.1-0.1,0.1-0.2,0.1-0.3c0.1-0.4,0.1-0.8-0.1-1.2c-0.2-0.4-0.6-0.6-1-0.8
			c-0.5-0.2-0.9-0.2-1.3,0c-0.4,0.2-0.7,0.5-0.8,0.9c-0.1,0.2-0.1,0.3-0.1,0.5c0,0.2,0,0.3,0,0.5L121.5,92.1z"/>
		<path class="st0" d="M121,92.8l3.7,1.6c0,0,0.1,0,0.1,0.1c0,0,0.1,0,0.1,0.1c0,0,0.1,0,0.1,0c0,0,0.1,0,0.1,0.1
			c0.2,0.1,0.4,0.2,0.5,0.2c0.2,0.1,0.4,0.1,0.5,0.2l-0.5,1.2l-1.4-0.5c0.3,0.3,0.6,0.5,0.8,0.9c0.2,0.3,0.2,0.7,0,1.1
			c0,0,0,0.1,0,0.1c0,0,0,0.1,0,0.1c0,0,0,0.1-0.1,0.1c0,0,0,0.1-0.1,0.1l-1.3-0.5c0.1-0.1,0.1-0.1,0.1-0.2c0-0.1,0.1-0.1,0.1-0.2
			c0.2-0.4,0.2-0.8-0.1-1.1c-0.3-0.3-0.6-0.5-0.9-0.7c0,0-0.1,0-0.1-0.1c0,0-0.1,0-0.1-0.1l-0.1,0l-2.2-0.9L121,92.8z"/>
		<path class="st0" d="M117.5,100.3c0-0.3,0.1-0.5,0.1-0.8c0.1-0.3,0.2-0.5,0.3-0.8c0,0,0-0.1,0.1-0.1c0,0,0-0.1,0.1-0.1
			c0.4-0.8,1-1.3,1.7-1.4c0.7-0.2,1.5,0,2.3,0.4c0.8,0.4,1.3,1,1.6,1.7c0.3,0.7,0.2,1.4-0.2,2.1c-0.4,0.7-1,1.1-1.7,1.2
			c-0.7,0-1.4-0.1-2.1-0.5c0,0-0.1,0-0.1-0.1c0,0-0.1,0-0.1-0.1c0,0,0,0,0,0c0,0,0,0,0,0c0,0-0.1,0-0.1,0c0,0,0,0-0.1,0l1.8-3.2
			c-0.4-0.2-0.8-0.2-1.2-0.1c-0.4,0.1-0.6,0.4-0.9,0.8c-0.1,0.3-0.2,0.5-0.3,0.8c0,0.3,0,0.6,0,0.9L117.5,100.3z M121.8,101.3
			c0.3,0,0.6-0.2,0.8-0.5c0.2-0.3,0.2-0.7,0.1-1c-0.2-0.3-0.4-0.6-0.7-0.8l-1.1,2.1C121.1,101.2,121.5,101.3,121.8,101.3z"/>
		<path class="st0" d="M114.9,103.8c0-0.1,0.1-0.1,0.1-0.2c0-0.1,0.1-0.1,0.1-0.2c0-0.1,0.1-0.1,0.1-0.2c0-0.1,0.1-0.1,0.1-0.2
			c0.4-0.6,0.8-0.9,1.3-0.8c0.5,0,1,0.2,1.6,0.6l2,1.4l0.6-0.8l0.9,0.6l-0.6,0.9l1,0.7l-0.4,1.4l-1.4-0.9l-0.7,1l-0.9-0.6l0.7-1
			l-1.7-1.2c0,0,0,0-0.1,0c0,0,0,0-0.1,0c-0.3-0.2-0.5-0.3-0.8-0.4c-0.3-0.1-0.5,0-0.7,0.3c0,0,0,0.1-0.1,0.1c0,0,0,0.1-0.1,0.1
			c0,0,0,0.1,0,0.1c0,0,0,0.1,0,0.1L114.9,103.8z"/>
		<path class="st0" d="M112,108.3c-0.1-0.7,0.2-1.4,0.7-2.1c0.6-0.6,1.2-1,2-1c0.8,0,1.5,0.3,2.2,0.9c0.7,0.6,1.1,1.2,1.1,2
			c0.1,0.8-0.1,1.4-0.7,2.1c-0.6,0.6-1.2,1-2,1c-0.8,0-1.5-0.3-2.2-0.9C112.5,109.7,112.1,109,112,108.3z M114.3,109.3
			c0.1,0,0.1,0.1,0.2,0.1c0.3,0.2,0.7,0.3,1.1,0.4c0.4,0.1,0.7-0.1,1-0.4c0.3-0.3,0.3-0.6,0.2-1c-0.1-0.4-0.3-0.7-0.5-1
			c0-0.1-0.1-0.1-0.1-0.1c0,0-0.1-0.1-0.1-0.1c0,0-0.1-0.1-0.1-0.1c0,0-0.1-0.1-0.1-0.1c-0.3-0.2-0.7-0.4-1.1-0.4
			c-0.4-0.1-0.7,0.1-1,0.4c-0.3,0.3-0.3,0.6-0.2,1c0.1,0.4,0.3,0.7,0.5,1c0,0.1,0.1,0.1,0.1,0.2c0.1,0.1,0.1,0.1,0.2,0.1
			C114.2,109.2,114.2,109.3,114.3,109.3z"/>
	</g>
	<path class="st0" d="M48.7,117.1c0,1.3-1.1,2.4-2.4,2.4c-1.3,0-2.4-1.1-2.4-2.4c0-1.3,1.1-2.4,2.4-2.4
		C47.7,114.7,48.7,115.8,48.7,117.1z"/>
	<path class="st0" d="M48.7,117.1c0,1.3-1.1,2.4-2.4,2.4c-1.3,0-2.4-1.1-2.4-2.4c0-1.3,1.1-2.4,2.4-2.4
		C47.7,114.7,48.7,115.8,48.7,117.1z"/>
	<path class="st0" d="M108.4,116.6c0,1.3-1.1,2.4-2.4,2.4c-1.3,0-2.4-1.1-2.4-2.4c0-1.3,1.1-2.4,2.4-2.4
		C107.3,114.2,108.4,115.3,108.4,116.6z"/>
</g>
<g>
	<g>
		<path class="st5" d="M56.9,65.3l-2.5,0l0-2c0-0.3-0.1-0.5-0.4-0.5c-0.3,0-0.4,0.2-0.4,0.5l0,7.9c0,0.4,0.1,0.5,0.4,0.5
			c0.3,0,0.4-0.2,0.4-0.5l0-3l2.5,0l0,2.7c0,2-0.3,2.4-2.9,2.4c-2.6,0-3-0.3-3-2.4l0-7.3c0-2,0.3-2.4,2.9-2.4c2.6,0,2.9,0.3,3,2.4
			L56.9,65.3z"/>
		<path class="st5" d="M63.9,61.3l1.5,11.9l-2.5,0l-0.2-2.5l-1.1,0l-0.2,2.5l-2.5,0l1.4-11.9L63.9,61.3z M61.8,69l0.9,0l-0.4-5.4
			l-0.1,0L61.8,69z"/>
		<path class="st5" d="M70.3,61.2l0,10.3l1.5,0l0,1.6l-4.1,0l0-11.9L70.3,61.2z"/>
		<path class="st5" d="M76.7,61.2l0,11.9l-2.5,0l0-11.9L76.7,61.2z"/>
		<path class="st5" d="M82.4,61.2c2.5,0,2.8,0.4,2.8,2.4l0,7c0,2-0.3,2.4-2.7,2.4l-3.1,0l0-11.9L82.4,61.2z M81.9,71.6
			c0.1,0,0.1,0,0.2,0c0.5,0,0.6-0.2,0.6-0.6c0,0,0,0,0-0.1l0-7.4c0,0,0-0.1,0-0.1c0-0.5,0-0.6-0.6-0.6c-0.1,0-0.1,0-0.2,0L81.9,71.6
			z"/>
		<path class="st5" d="M92.3,61.2l1.5,11.9l-2.5,0l-0.2-2.5l-1.1,0l-0.2,2.5l-2.5,0l1.4-11.9L92.3,61.2z M90.2,69l0.9,0l-0.4-5.4
			h-0.1L90.2,69z"/>
		<path class="st5" d="M99.3,61.2c2.5,0,2.8,0.4,2.8,2.4l0,7c0,2-0.3,2.4-2.7,2.4l-3.1,0l0-11.9L99.3,61.2z M98.7,71.5
			c0.1,0,0.1,0,0.2,0c0.5,0,0.6-0.2,0.6-0.6c0,0,0,0,0-0.1l0-7.4c0,0,0-0.1,0-0.1c0-0.5,0-0.6-0.6-0.6c-0.1,0-0.1,0-0.2,0L98.7,71.5
			z"/>
	</g>
</g>
<text transform="matrix(1 0 0 1 55.7114 87.8555)" class="st6 st7 st8">IMCYC</text>
<text transform="matrix(1 0 0 1 55.7114 87.8555)" class="st0 st7 st8">IMCYC</text>
<g>
	<path class="st0" d="M98.1,119.8c-0.4-0.8-1.1-1.4-2-1.8c-0.8-0.4-1.7-0.6-2.6-0.8c-1.1-0.1-2.2-0.1-3.3,0.2
		c-0.7,0.2-1.4,0.5-2,0.9c-0.5,0.3-1.2,0.8-1.1,1.4c0,0.3,0.2,0.6,0.5,0.6c0.3,0,0.5-0.2,0.7-0.4c1.2-1.3,2.9-2.2,4.7-2.3
		c1.5-0.1,3.2,0.5,4,1.9c0.4,0.7,0.5,1.5,0,2.2c-0.4,0.6-1.4,0.9-2,0.3c-0.6-0.6-0.4-1.6,0.5-1.6c0.4,0,0.7,0.2,0.8,0.6
		c0,0.2,0,0.4-0.2,0.4c-0.2,0-0.3-0.2-0.4-0.3c-0.1-0.2-0.3-0.2-0.4-0.1c-0.1,0.1-0.1,0.3,0,0.4c0.1,0.1,0.2,0.3,0.3,0.3
		c0.5,0.2,1-0.4,0.9-0.8c0-0.9-1.3-1.1-1.8-0.6c-0.7,0.6-0.5,1.8,0.3,2.2c0.6,0.3,1.4,0.2,1.9-0.3c0.6-0.5,0.7-1.3,0.6-2.1
		c0.3,0.7,0.4,1.4,0.4,2.2c-0.1,0.6-0.2,1.2-0.6,1.8c-1.1,1.8-3.1,2.5-5.1,2.5c-0.1,0-0.2,0-0.3,0c0.1,0-0.1-1-0.2-1.1
		c-0.1-0.4-0.3-0.8-0.5-1.1c-0.2-0.3-0.5-0.6-0.9-0.9c-0.1-0.1-0.3-0.2-0.4-0.2c-0.2-0.1-0.5-0.1-0.8-0.1c-0.4,0-0.7,0.1-0.9,0.4
		c-0.2,0.2-0.3,0.5-0.3,0.8c0,0,0,0,0,0.1c0,0-0.1-0.1-0.1-0.1c-0.7-0.7-1.6-1-2.7-1c-3.1,0-6.1,1.5-8.8,3c-2.7-1.6-5.7-3-8.8-3
		c-1.1,0-2,0.3-2.7,1c0,0-0.1,0.1-0.1,0.1c0,0,0,0,0-0.1c0-0.3-0.1-0.6-0.3-0.8c-0.2-0.2-0.5-0.4-0.9-0.4c-0.3,0-0.6,0.1-0.8,0.1
		c-0.2,0.1-0.3,0.1-0.4,0.2c-0.4,0.2-0.6,0.5-0.9,0.9c-0.2,0.4-0.4,0.7-0.5,1.1c0,0.1-0.2,1.1-0.2,1.1c-0.1,0-0.2,0-0.3,0
		c-2,0-4.1-0.7-5.1-2.5c-0.3-0.5-0.5-1.2-0.6-1.8c-0.1-0.8,0.1-1.6,0.4-2.2c-0.2,0.7,0,1.5,0.6,2.1c0.5,0.5,1.3,0.6,1.9,0.3
		c0.8-0.4,1-1.6,0.3-2.2c-0.6-0.5-1.8-0.3-1.8,0.6c0,0.5,0.4,1,0.9,0.8c0.1-0.1,0.3-0.2,0.3-0.3c0-0.1,0.1-0.3,0-0.4
		c-0.1-0.2-0.3-0.1-0.4,0.1c-0.1,0.1-0.2,0.4-0.4,0.3c-0.2,0-0.3-0.3-0.2-0.4c0.1-0.4,0.4-0.6,0.8-0.6c0.9,0.1,1,1.1,0.5,1.6
		c-0.6,0.6-1.5,0.3-2-0.3c-0.4-0.7-0.4-1.5,0-2.2c0.8-1.4,2.5-2,4-1.9c1.8,0.1,3.5,1,4.7,2.3c0.2,0.2,0.4,0.4,0.7,0.4
		c0.3,0,0.5-0.3,0.5-0.6c0-0.6-0.7-1.1-1.1-1.4c-0.6-0.4-1.3-0.7-2-0.9c-1.1-0.3-2.2-0.4-3.3-0.2c-0.9,0.1-1.8,0.3-2.6,0.8
		c-0.8,0.4-1.5,1.1-2,1.8c-0.4,0.7-0.6,1.4-0.6,2.2c0,0.7,0.1,1.3,0.4,1.9c1,2.3,3.6,3.2,6,3.2h0.3c0.1,0.6,0.3,1.1,0.7,1.6
		c0.3,0.5,0.7,0.8,1.2,1.2c0,0,0.1,0.1,0.1,0.1c0.5,0.4,1.1,0.7,1.8,0.9c0.7,0.2,1.3,0.3,2,0.3c1.3,0,2.5-0.2,3.6-0.5
		c1.1-0.4,2.2-0.8,3.2-1.3c1-0.5,1.9-1.1,2.8-1.7c0.9,0.6,1.9,1.2,2.8,1.7c1,0.5,2.1,1,3.2,1.3c1.1,0.4,2.3,0.5,3.6,0.5
		c0.7,0,1.3-0.1,2-0.3c0.7-0.2,1.3-0.5,1.8-0.9c0,0,0.1-0.1,0.1-0.1c0.5-0.4,0.9-0.7,1.2-1.2c0.4-0.5,0.6-1,0.7-1.6h0.3
		c2.3,0,4.9-0.9,6-3.2c0.3-0.6,0.4-1.2,0.4-1.9C98.7,121.2,98.5,120.5,98.1,119.8z M61.3,126.8c0-0.3,0.1-0.7,0.2-1
		c0.1-0.3,0.3-0.7,0.5-1c0.2-0.3,0.5-0.5,0.8-0.7c0,0,0.1-0.1,0.2-0.1c0.3-0.1,0.6-0.2,0.9-0.2c0.3,0,0.5,0.1,0.6,0.2
		c0.1,0.2,0.2,0.3,0.2,0.5c0,0.2,0,0.3-0.1,0.5c-0.1,0.2-0.2,0.3-0.3,0.5c-0.2,0.2-0.4,0.4-0.6,0.6c-0.2,0.2-0.5,0.3-0.7,0.4
		C62.5,126.7,61.9,126.8,61.3,126.8L61.3,126.8z M75.5,127.2c-1,0.6-2,1.2-3,1.8c-1,0.6-1.9,1-2.9,1.4c-0.9,0.4-1.8,0.5-2.7,0.5
		c-0.7,0-1.4-0.1-2-0.3c-0.6-0.2-1.2-0.5-1.7-0.8c0,0-0.1-0.1-0.2-0.1c-0.4-0.3-0.8-0.7-1.1-1.1c-0.3-0.5-0.5-0.9-0.6-1.4
		c0.6,0,1.2-0.2,1.7-0.3c0.4-0.1,0.7-0.3,1-0.5c0.1,0,0.1-0.1,0.2-0.1c-0.2,0.8-0.1,1.8,0.4,2.5c0.5,0.8,1.3,1.3,2.2,1.5
		c1.1,0.2,2.2,0,3.1-0.7c0.3-0.2,0.5-0.5,0.6-0.8c0-0.3-0.1-0.5-0.4-0.6c-0.7-0.3-1.3,0.7-1.9,0.9c-0.7,0.3-1.6,0.2-2.2-0.2
		c-1-0.7-1.7-1.9-1.2-3.1c0.5-1,1.7-1.6,2.8-1.7c1.1-0.1,2.3,0.1,3.3,0.5c1.4,0.5,2.7,1.3,4,2c0.3,0.2,0.6,0.4,1,0.6
		C75.7,127.1,75.6,127.2,75.5,127.2z M91.2,128.5c-0.3,0.4-0.7,0.8-1.1,1.1c-0.1,0-0.1,0.1-0.2,0.1c-0.5,0.4-1.1,0.6-1.7,0.8
		c-0.7,0.2-1.3,0.3-2,0.3c-0.9,0-1.8-0.2-2.7-0.5c-0.9-0.4-1.9-0.8-2.9-1.4c-1-0.6-2-1.1-3-1.8c-0.1,0-0.2-0.1-0.2-0.1
		c0.3-0.2,0.6-0.4,1-0.6c1.3-0.7,2.6-1.5,4-2c1.1-0.4,2.2-0.6,3.3-0.5c1.1,0.1,2.3,0.6,2.8,1.7c0.5,1.2-0.1,2.4-1.2,3.1
		c-0.7,0.4-1.5,0.6-2.2,0.2c-0.6-0.3-1.2-1.3-1.9-0.9c-0.2,0.1-0.4,0.4-0.4,0.6c0,0.3,0.3,0.6,0.6,0.8c0.9,0.7,2,0.9,3.1,0.7
		c0.9-0.2,1.7-0.8,2.2-1.5c0.5-0.7,0.6-1.7,0.4-2.5c0.1,0,0.1,0.1,0.2,0.1c0.3,0.2,0.6,0.4,1,0.5c0.5,0.2,1,0.3,1.7,0.3
		C91.7,127.6,91.5,128.1,91.2,128.5z M91.8,126.9c-0.6,0-1.2-0.2-1.7-0.4c-0.3-0.1-0.5-0.2-0.7-0.4c-0.3-0.2-0.5-0.4-0.6-0.6
		c-0.1-0.2-0.2-0.4-0.3-0.5c0-0.1-0.1-0.3-0.1-0.5c0-0.2,0.1-0.4,0.2-0.5c0.1-0.2,0.3-0.2,0.6-0.2c0.3,0,0.6,0.1,0.9,0.2
		c0.1,0,0.1,0.1,0.2,0.1c0.3,0.2,0.6,0.4,0.8,0.7c0.2,0.3,0.4,0.6,0.5,1C91.8,126.2,91.8,126.5,91.8,126.9L91.8,126.9z"/>
</g>
<g>
	<path class="st0" d="M56.9,65.3l-2.5,0l0-2c0-0.3-0.1-0.5-0.4-0.5c-0.3,0-0.4,0.2-0.4,0.5l0,7.9c0,0.4,0.1,0.5,0.4,0.5
		c0.3,0,0.4-0.2,0.4-0.5l0-3l2.5,0l0,2.7c0,2-0.3,2.4-2.9,2.4c-2.6,0-3-0.3-3-2.4l0-7.3c0-2,0.3-2.4,2.9-2.4c2.6,0,2.9,0.3,3,2.4
		L56.9,65.3z"/>
	<path class="st0" d="M63.9,61.3l1.5,11.9l-2.5,0l-0.2-2.5l-1.1,0l-0.2,2.5l-2.5,0l1.4-11.9L63.9,61.3z M61.8,69l0.9,0l-0.4-5.4
		l-0.1,0L61.8,69z"/>
	<path class="st0" d="M70.3,61.2l0,10.3l1.5,0l0,1.6l-4.1,0l0-11.9L70.3,61.2z"/>
	<path class="st0" d="M76.7,61.2l0,11.9l-2.5,0l0-11.9L76.7,61.2z"/>
	<path class="st0" d="M82.4,61.2c2.5,0,2.8,0.4,2.8,2.4l0,7c0,2-0.3,2.4-2.7,2.4l-3.1,0l0-11.9L82.4,61.2z M81.9,71.6
		c0.1,0,0.1,0,0.2,0c0.5,0,0.6-0.2,0.6-0.6c0,0,0,0,0-0.1l0-7.4c0,0,0-0.1,0-0.1c0-0.5,0-0.6-0.6-0.6c-0.1,0-0.1,0-0.2,0L81.9,71.6z
		"/>
	<path class="st0" d="M92.3,61.2l1.5,11.9l-2.5,0l-0.2-2.5l-1.1,0l-0.2,2.5l-2.5,0l1.4-11.9L92.3,61.2z M90.2,69l0.9,0l-0.4-5.4
		h-0.1L90.2,69z"/>
	<path class="st0" d="M99.3,61.2c2.5,0,2.8,0.4,2.8,2.4l0,7c0,2-0.3,2.4-2.7,2.4l-3.1,0l0-11.9L99.3,61.2z M98.7,71.5
		c0.1,0,0.1,0,0.2,0c0.5,0,0.6-0.2,0.6-0.6c0,0,0,0,0-0.1l0-7.4c0,0,0-0.1,0-0.1c0-0.5,0-0.6-0.6-0.6c-0.1,0-0.1,0-0.2,0L98.7,71.5z
		"/>
</g>
<circle class="st3" cx="76.7" cy="126.6" r="5.4"/>
<path class="st0" d="M75.1,125.3c0.4-0.5,1-0.8,1.6-0.8c0.7,0,1.2,0.3,1.6,0.8l2.9-1.7c-1-1.5-2.6-2.5-4.5-2.5c-1.9,0-3.6,1-4.5,2.5
	L75.1,125.3z"/>
<path class="st0" d="M76.4,128.7c-1-0.1-1.8-1-1.8-2c0-0.3,0.1-0.5,0.1-0.8l-2.9-1.7c-0.4,0.7-0.6,1.6-0.6,2.4
	c0,2.9,2.3,5.2,5.1,5.4V128.7z"/>
<path class="st0" d="M81.5,124.2l-2.9,1.7c0.1,0.2,0.1,0.5,0.1,0.8c0,1-0.8,1.9-1.8,2v3.4c2.9-0.2,5.1-2.5,5.1-5.4
	C82.1,125.7,81.9,124.9,81.5,124.2z"/>
</svg>
